<svg width="48" height="47" viewBox="0 0 48 47" fill="none" xmlns="http://www.w3.org/2000/svg">
<path d="M2.94514 6.79805L4.2964 6.1875L10.3743 38.1607C10.7849 40.3208 12.862 41.7444 15.0247 41.3482L46.9165 35.5058V35.9589C46.9165 37.8961 45.5283 39.5549 43.6214 39.8963L12.0304 45.5524C9.9103 45.932 7.87032 44.5648 7.41558 42.4596L0.68235 11.2878C0.284294 9.44494 1.22706 7.57435 2.94514 6.79805Z" fill="#171717" stroke="#171717" stroke-width="0.5"/>
<path d="M4.67256 5.87882L38.1348 1.24989C39.1591 1.1082 40.1225 1.77065 40.3569 2.77778L47.5194 33.5609C47.7799 34.6803 47.0456 35.7883 45.9133 35.9848L12.629 41.7585C11.5821 41.9401 10.576 41.2715 10.338 40.2361L2.99747 8.30808C2.73434 7.16358 3.50928 6.03974 4.67256 5.87882Z" fill="white" stroke="#171717" stroke-width="0.5"/>
<path d="M33.9715 18.8944C33.8193 18.4051 33.3213 18.12 32.8218 18.2232L25.4281 19.7516C24.8895 19.8629 24.5399 20.3947 24.6513 20.9333L24.9974 22.6079C25.1087 23.1465 25.6405 23.4961 26.1791 23.3848L30.5958 22.4718C30.6743 23.395 30.3681 24.8777 29.2539 26.0577C28.5409 26.8075 27.5173 27.4378 26.0581 27.7394C25.9896 27.7536 25.9308 27.7657 25.8603 27.7701C23.3469 28.208 20.8854 26.9706 19.6459 24.8272C19.3127 24.2527 19.0616 23.6307 18.9219 22.9549C18.7822 22.2792 18.7641 21.5988 18.8345 20.9512C18.8568 20.7627 18.8889 20.5723 18.9308 20.3798C19.4127 18.1665 21.0856 16.3298 23.3825 15.7835C23.4393 15.7616 23.5078 15.7474 23.5764 15.7332C24.9767 15.4438 26.1197 15.6874 26.9595 16.0448C27.3961 16.2303 27.8931 16.0663 28.1593 15.6743L29.2452 14.0611C29.5891 13.5509 29.4021 12.8441 28.8396 12.5928C27.0457 11.7689 25.0062 11.4859 22.7929 11.9434C22.7244 11.9575 22.6656 11.9697 22.5991 11.9936C18.8626 12.8375 16.0901 15.6775 15.1632 19.147C14.7726 20.6165 14.6984 22.184 15.0243 23.7606C15.3502 25.3373 16.0398 26.7469 16.9811 27.9411L16.9908 27.939C19.2173 30.7567 22.8886 32.2647 26.6437 31.56C26.7142 31.5556 26.773 31.5435 26.8415 31.5293C29.4856 30.9827 31.5285 29.6516 32.8346 27.8193C34.3312 25.7229 34.8804 22.9953 34.263 20.0084C34.176 19.5873 34.0815 19.2291 33.9715 18.8944Z" fill="#171717"/>
<path d="M35.0971 16.8837L34.3117 17.0627L34.3025 17.0222L25.5274 19.0217L26.416 22.9217L31.9263 21.6662C31.6397 24.1197 29.8509 26.2416 27.3047 26.8218C24.074 27.5579 20.8578 25.5354 20.1217 22.3047C19.3855 19.074 21.408 15.8578 24.6387 15.1217C26.13 14.7819 27.6149 15.0353 28.8573 15.7189L30.9868 12.3327C28.8756 11.1065 26.3183 10.6364 23.7501 11.2216C18.3656 12.4485 14.9947 17.8088 16.2216 23.1933C17.4485 28.5778 22.8088 31.9487 28.1933 30.7218C33.5778 29.4949 36.9487 24.1346 35.7218 18.7501C35.5728 18.0963 35.3602 17.4735 35.0971 16.8837Z" fill="#FFC107"/>
<path d="M16.3118 18.399L20.0505 20.0184C20.4283 17.6749 22.1822 15.6814 24.6387 15.1216C26.13 14.7818 27.6149 15.0353 28.8573 15.7189L30.9868 12.3327C28.8756 11.1065 26.3183 10.6364 23.7501 11.2216C20.0051 12.0749 17.2391 14.9293 16.3118 18.399Z" fill="#FF3D00"/>
<path d="M28.1933 30.7218C30.7118 30.1479 32.7805 28.6627 34.1536 26.7012L30.5541 24.8352C29.7441 25.7998 28.6283 26.5202 27.3047 26.8218C24.7687 27.3996 22.2469 26.2732 20.9215 24.2014L18.3002 27.3756C20.6333 30.1654 24.404 31.5852 28.1933 30.7218Z" fill="#4CAF50"/>
<path d="M35.0971 16.8837L34.3117 17.0627L34.3025 17.0222L25.5274 19.0217L26.416 22.9217L31.9263 21.6662C31.7887 22.8447 31.3014 23.9449 30.5527 24.836C30.5531 24.8354 30.5536 24.8353 30.5539 24.8347L34.1534 26.7007C33.9841 26.9434 36.8326 23.6251 35.7218 18.7501C35.5728 18.0963 35.3602 17.4735 35.0971 16.8837Z" fill="#1976D2"/>
</svg>
